<svg width="87" height="87" viewBox="0 0 87 87" fill="none" xmlns="http://www.w3.org/2000/svg">
<path d="M70.101 43.0307C70.2574 44.3216 70.4139 45.6126 70.4139 46.9426C70.4139 55.0793 67.2844 62.4728 62.199 68.0277C61.1819 64.859 58.2871 62.5901 54.7664 62.5901H50.8545V50.8545C50.8545 48.703 49.0941 46.9426 46.9426 46.9426H23.4713V39.1188H31.2951C33.4466 39.1188 35.207 37.3585 35.207 35.207V27.3832H43.0307C47.3338 27.3832 50.8545 23.8625 50.8545 19.5594V9.62323C47.1382 8.44967 43.2263 7.82377 39.1188 7.82377C17.5252 7.82377 0 25.349 0 46.9426C0 68.5362 17.5252 86.0614 39.1188 86.0614C60.7124 86.0614 78.2377 68.5362 78.2377 46.9426C78.2377 45.6126 78.1594 44.3216 78.0421 43.0307H70.101V43.0307ZM35.207 77.9639C19.755 76.047 7.82377 62.9031 7.82377 46.9426C7.82377 44.5172 8.13672 42.2092 8.64526 39.9403L27.3832 58.6783V62.5901C27.3832 66.8932 30.9039 70.4139 35.207 70.4139V77.9639ZM82.1496 11.7357V9.77971C82.1496 7.18597 81.1192 4.69846 79.2852 2.86441C77.4511 1.03036 74.9636 0 72.3699 0C69.7761 0 67.2886 1.03036 65.4546 2.86441C63.6205 4.69846 62.5901 7.18597 62.5901 9.77971V11.7357C60.4386 11.7357 58.6783 13.496 58.6783 15.6475V31.2951C58.6783 33.4466 60.4386 35.207 62.5901 35.207H82.1496C84.3011 35.207 86.0614 33.4466 86.0614 31.2951V15.6475C86.0614 13.496 84.3011 11.7357 82.1496 11.7357ZM78.2377 11.7357H66.502V9.77971C66.502 6.53285 69.123 3.91188 72.3699 3.91188C75.6167 3.91188 78.2377 6.53285 78.2377 9.77971V11.7357Z" fill="#393939"/>
</svg>
