<svg width="369" height="60" viewBox="0 0 369 60" fill="none" xmlns="http://www.w3.org/2000/svg">
<path d="M35.2539 39.748C36.2305 39.748 36.9792 39.4632 37.5 38.8936C38.0371 38.3076 38.3057 37.4775 38.3057 36.4033C38.3057 35.4268 38.029 34.6536 37.4756 34.084C36.9222 33.498 36.1816 33.2051 35.2539 33.2051H14.7461V39.748H35.2539ZM34.2529 25.8076C35.1807 25.8076 35.8887 25.5553 36.377 25.0508C36.8652 24.5299 37.1094 23.7812 37.1094 22.8047C37.1094 21.9095 36.8408 21.1852 36.3037 20.6318C35.7829 20.0785 35.0993 19.8018 34.2529 19.8018H14.7461V25.8076H34.2529ZM38.1104 48H3.66211V11.6475H36.4014C40.4704 11.6475 43.5059 12.4857 45.5078 14.1621C47.5098 15.8385 48.5107 18.3857 48.5107 21.8037C48.5107 23.7406 48.0713 25.3356 47.1924 26.5889C46.3298 27.8258 44.9788 28.7943 43.1396 29.4941C45.4346 29.8685 47.111 30.7555 48.1689 32.1553C49.2269 33.5387 49.7559 35.5407 49.7559 38.1611C49.7559 41.5954 48.8363 44.0938 46.9971 45.6562C45.1579 47.2188 42.1956 48 38.1104 48ZM85.2295 20.7051H67.5781V29.5918H85.2295C86.7106 29.5918 87.7441 29.25 88.3301 28.5664C88.9323 27.8665 89.2334 26.6133 89.2334 24.8066C89.2334 23.3743 88.916 22.3327 88.2812 21.6816C87.6465 21.0306 86.6292 20.7051 85.2295 20.7051ZM85.6445 11.6475C91.4062 11.6475 95.3288 12.502 97.4121 14.2109C99.4954 15.9199 100.537 19.0368 100.537 23.5615C100.537 26.7028 100.073 29.0384 99.1455 30.5684C98.2178 32.0983 96.6634 33.1237 94.4824 33.6445C96.403 34.1003 97.8434 34.9059 98.8037 36.0615C99.764 37.2171 100.244 38.7145 100.244 40.5537V48H89.1357V42.458C89.1357 41.0257 88.7939 40.041 88.1104 39.5039C87.443 38.9668 86.1165 38.6982 84.1309 38.6982H67.5781V48H56.4453V11.6475H85.6445ZM177.49 48H164.795L153.174 11.6475H164.233L171.729 37.502L181.03 11.6475H191.235L200.024 37.502L208.032 11.6475H219.092L206.934 48H194.434L186.035 22.9512L177.49 48ZM221.46 35.915L232.422 35.8906V36.5498C232.422 37.917 232.756 38.8447 233.423 39.333C234.09 39.805 235.49 40.041 237.622 40.041H251.562C252.93 40.041 253.906 39.8132 254.492 39.3574C255.078 38.8854 255.371 38.1123 255.371 37.0381C255.371 35.9476 255.029 35.1663 254.346 34.6943C253.678 34.2223 252.23 33.9049 250 33.7422L232.568 33.3516C228.206 33.2214 225.252 32.3913 223.706 30.8613C222.176 29.3314 221.411 26.5482 221.411 22.5117C221.411 20.4284 221.615 18.7113 222.021 17.3604C222.428 16.0094 223.079 14.8864 223.975 13.9912C225.033 12.9821 226.416 12.266 228.125 11.8428C229.834 11.4196 232.617 11.208 236.475 11.208H253.418C257.617 11.208 260.636 11.973 262.476 13.5029C264.331 15.0329 265.259 17.515 265.259 20.9492C265.259 21.1771 265.251 21.4212 265.234 21.6816C265.234 21.9421 265.21 22.3652 265.161 22.9512H254.468V22.8047C254.468 21.6003 254.159 20.6969 253.54 20.0947C252.938 19.4925 252.026 19.1914 250.806 19.1914H238.013C235.881 19.1914 234.473 19.403 233.789 19.8262C233.105 20.2493 232.764 20.9899 232.764 22.0479C232.764 23.0895 233.073 23.8464 233.691 24.3184C234.31 24.7741 235.449 25.0671 237.109 25.1973L255.371 25.4902C259.538 25.6042 262.467 26.54 264.16 28.2979C265.869 30.0557 266.724 33.0586 266.724 37.3066C266.724 39.8294 266.406 41.7826 265.771 43.166C265.153 44.5495 264.103 45.7295 262.622 46.7061C261.646 47.3245 260.319 47.764 258.643 48.0244C256.966 48.3011 254.541 48.4395 251.367 48.4395H236.572C230.501 48.4395 226.44 47.764 224.39 46.4131C222.339 45.0459 221.313 42.5068 221.313 38.7959C221.313 38.5843 221.322 38.2344 221.338 37.7461C221.37 37.2415 221.411 36.6312 221.46 35.915ZM312.793 20.5098H284.18V26.0029H311.133V33.6445H284.18V39.2109H313.232V48H273.096V11.6475H312.793V20.5098ZM354.419 24.7578V24.3916C354.419 22.9756 353.947 21.9421 353.003 21.291C352.075 20.6237 350.594 20.29 348.56 20.29H339.673C335.864 20.29 333.415 20.7539 332.324 21.6816C331.25 22.5931 330.713 24.5137 330.713 27.4434V32.4971C330.713 35.1175 331.315 36.916 332.52 37.8926C333.724 38.8691 336.108 39.3574 339.673 39.3574H346.118C349.65 39.3574 351.961 39.0075 353.052 38.3076C354.159 37.5915 354.712 36.2731 354.712 34.3525V33.9619H365.967C365.967 34.0107 365.975 34.1003 365.991 34.2305C366.04 35.2884 366.064 36.0778 366.064 36.5986C366.064 38.9261 365.771 40.8467 365.186 42.3604C364.6 43.874 363.68 45.0866 362.427 45.998C361.239 46.877 359.652 47.5036 357.666 47.8779C355.697 48.2523 352.799 48.4395 348.975 48.4395H336.572C332.78 48.4395 329.989 48.236 328.198 47.8291C326.408 47.4222 324.878 46.7305 323.608 45.7539C322.144 44.5983 321.077 43.1823 320.41 41.5059C319.743 39.8132 319.409 37.681 319.409 35.1094V25.1973C319.409 19.9889 320.646 16.3594 323.12 14.3086C325.594 12.2415 330.078 11.208 336.572 11.208H348.975C352.962 11.208 355.9 11.387 357.788 11.7451C359.676 12.1032 361.165 12.7054 362.256 13.5518C363.411 14.4307 364.258 15.6188 364.795 17.1162C365.348 18.5973 365.625 20.4609 365.625 22.707C365.625 23.2441 365.617 23.6592 365.601 23.9521C365.601 24.2288 365.584 24.4974 365.552 24.7578H354.419Z" fill="black"/>
<path d="M140.77 28.4693C140.841 29.0552 140.912 29.6411 140.912 30.2448C140.912 33.9379 139.491 37.2936 137.183 39.8148C136.721 38.3767 135.408 37.3469 133.81 37.3469H132.034V32.0203C132.034 31.0438 131.235 30.2448 130.259 30.2448H119.605V26.6938H123.157C124.133 26.6938 124.932 25.8948 124.932 24.9182V21.3672H128.483C130.436 21.3672 132.034 19.7692 132.034 17.8162V13.3063C130.347 12.7737 128.572 12.4896 126.708 12.4896C116.907 12.4896 108.952 20.4439 108.952 30.2448C108.952 40.0457 116.907 48 126.708 48C136.508 48 144.463 40.0457 144.463 30.2448C144.463 29.6411 144.427 29.0552 144.374 28.4693H140.77V28.4693ZM124.932 44.3247C117.919 43.4547 112.503 37.4889 112.503 30.2448C112.503 29.144 112.645 28.0964 112.876 27.0666L121.381 35.5714V37.3469C121.381 39.2999 122.979 40.8979 124.932 40.8979V44.3247ZM146.238 14.2651V13.3774C146.238 12.2001 145.771 11.0711 144.938 10.2386C144.106 9.40621 142.977 8.93855 141.799 8.93855C140.622 8.93855 139.493 9.40621 138.661 10.2386C137.828 11.0711 137.361 12.2001 137.361 13.3774V14.2651C136.384 14.2651 135.585 15.0641 135.585 16.0406V23.1427C135.585 24.1193 136.384 24.9182 137.361 24.9182H146.238C147.215 24.9182 148.014 24.1193 148.014 23.1427V16.0406C148.014 15.0641 147.215 14.2651 146.238 14.2651ZM144.463 14.2651H139.136V13.3774C139.136 11.9037 140.326 10.7141 141.799 10.7141C143.273 10.7141 144.463 11.9037 144.463 13.3774V14.2651Z" fill="#212121"/>
</svg>
