<svg width="87" height="87" viewBox="0 0 87 87" fill="none" xmlns="http://www.w3.org/2000/svg">
<path d="M61.7229 68.1805L61.9861 69.0006L62.5677 68.3653C67.7335 62.7227 70.9139 55.2103 70.9139 46.9426C70.9139 45.7749 70.7964 44.6398 70.6648 43.5307H77.5838C77.6778 44.6594 77.7377 45.7873 77.7377 46.9426C77.7377 68.2601 60.4363 85.5614 39.1188 85.5614C17.8014 85.5614 0.5 68.2601 0.5 46.9426C0.5 25.6252 17.8014 8.32377 39.1188 8.32377C43.0461 8.32377 46.7908 8.90312 50.3545 9.99149V19.5594C50.3545 23.5864 47.0577 26.8832 43.0307 26.8832H35.207H34.707V27.3832V35.207C34.707 37.0824 33.1705 38.6188 31.2951 38.6188H23.4713H22.9713V39.1188V46.9426V47.4426H23.4713H46.9426C48.818 47.4426 50.3545 48.9791 50.3545 50.8545V62.5901V63.0901H50.8545H54.7664C58.0608 63.0901 60.7694 65.21 61.7229 68.1805ZM35.1454 78.46L35.707 78.5297V77.9639V70.4139V69.9139H35.207C31.18 69.9139 27.8832 66.6171 27.8832 62.5901V58.6783V58.4712L27.7367 58.3247L8.99882 39.5868L8.35615 38.9441L8.15737 39.831C7.64247 42.1282 7.32377 44.4734 7.32377 46.9426C7.32377 63.1587 19.4463 76.5126 35.1454 78.46ZM81.6496 11.7357V12.2357H82.1496C84.025 12.2357 85.5614 13.7721 85.5614 15.6475V31.2951C85.5614 33.1705 84.025 34.707 82.1496 34.707H62.5901C60.7148 34.707 59.1783 33.1705 59.1783 31.2951V15.6475C59.1783 13.7721 60.7148 12.2357 62.5901 12.2357H63.0901V11.7357V9.77971C63.0901 7.31858 64.0678 4.95825 65.8081 3.21796C67.5484 1.47768 69.9087 0.5 72.3699 0.5C74.831 0.5 77.1913 1.47768 78.9316 3.21796C80.6719 4.95825 81.6496 7.31858 81.6496 9.77971V11.7357ZM78.2377 12.2357H78.7377V11.7357V9.77971C78.7377 6.2567 75.8929 3.41188 72.3699 3.41188C68.8468 3.41188 66.002 6.2567 66.002 9.77971V11.7357V12.2357H66.502H78.2377Z" fill="#393939" stroke="url(#paint0_linear_17_25)"/>
<defs>
<linearGradient id="paint0_linear_17_25" x1="43.0307" y1="3.46861e-09" x2="43.013" y2="79.4539" gradientUnits="userSpaceOnUse">
<stop stop-color="#CB25FF"/>
<stop offset="1" stop-color="#5EA3FF"/>
</linearGradient>
</defs>
</svg>
