<svg width="87" height="87" viewBox="0 0 87 87" fill="none" xmlns="http://www.w3.org/2000/svg">
<path d="M61.2468 68.3333L61.7733 69.9735L62.9365 68.7029C68.1826 62.9727 71.4139 55.3412 71.4139 46.9426C71.4139 45.9444 71.3301 44.9715 71.2257 44.0307H77.1217C77.1937 44.9958 77.2377 45.96 77.2377 46.9426C77.2377 67.9839 60.1602 85.0614 39.1188 85.0614C18.0775 85.0614 1 67.9839 1 46.9426C1 25.9013 18.0775 8.82377 39.1188 8.82377C42.8662 8.82377 46.4438 9.35795 49.8545 10.3635V19.5594C49.8545 23.3102 46.7815 26.3832 43.0307 26.3832H35.207H34.207V27.3832V35.207C34.207 36.8062 32.8943 38.1188 31.2951 38.1188H23.4713H22.4713V39.1188V46.9426V47.9426H23.4713H46.9426C48.5419 47.9426 49.8545 49.2552 49.8545 50.8545V62.5901V63.5901H50.8545H54.7664C57.8346 63.5901 60.3569 65.561 61.2468 68.3333ZM35.0839 78.9562L36.207 79.0956V77.9639V70.4139V69.4139H35.207C31.4562 69.4139 28.3832 66.3409 28.3832 62.5901V58.6783V58.264L28.0903 57.9712L9.35237 39.2332L8.06703 37.9479L7.66947 39.7216C7.14823 42.0472 6.82377 44.4296 6.82377 46.9426C6.82377 63.4143 19.1376 76.9781 35.0839 78.9562ZM81.1496 11.7357V12.7357H82.1496C83.7488 12.7357 85.0614 14.0483 85.0614 15.6475V31.2951C85.0614 32.8943 83.7488 34.207 82.1496 34.207H62.5901C60.9909 34.207 59.6783 32.8943 59.6783 31.2951V15.6475C59.6783 14.0483 60.9909 12.7357 62.5901 12.7357H63.5901V11.7357V9.77971C63.5901 7.45119 64.5151 5.21803 66.1617 3.57152C67.8082 1.925 70.0413 1 72.3699 1C74.6984 1 76.9315 1.925 78.578 3.57152C80.2246 5.21803 81.1496 7.45119 81.1496 9.77971V11.7357ZM78.2377 12.7357H79.2377V11.7357V9.77971C79.2377 5.98056 76.169 2.91188 72.3699 2.91188C68.5707 2.91188 65.502 5.98056 65.502 9.77971V11.7357V12.7357H66.502H78.2377Z" fill="#393939"/>
<path d="M61.2468 68.3333L61.7733 69.9735L62.9365 68.7029C68.1826 62.9727 71.4139 55.3412 71.4139 46.9426C71.4139 45.9444 71.3301 44.9715 71.2257 44.0307H77.1217C77.1937 44.9958 77.2377 45.96 77.2377 46.9426C77.2377 67.9839 60.1602 85.0614 39.1188 85.0614C18.0775 85.0614 1 67.9839 1 46.9426C1 25.9013 18.0775 8.82377 39.1188 8.82377C42.8662 8.82377 46.4438 9.35795 49.8545 10.3635V19.5594C49.8545 23.3102 46.7815 26.3832 43.0307 26.3832H35.207H34.207V27.3832V35.207C34.207 36.8062 32.8943 38.1188 31.2951 38.1188H23.4713H22.4713V39.1188V46.9426V47.9426H23.4713H46.9426C48.5419 47.9426 49.8545 49.2552 49.8545 50.8545V62.5901V63.5901H50.8545H54.7664C57.8346 63.5901 60.3569 65.561 61.2468 68.3333ZM35.0839 78.9562L36.207 79.0956V77.9639V70.4139V69.4139H35.207C31.4562 69.4139 28.3832 66.3409 28.3832 62.5901V58.6783V58.264L28.0903 57.9712L9.35237 39.2332L8.06703 37.9479L7.66947 39.7216C7.14823 42.0472 6.82377 44.4296 6.82377 46.9426C6.82377 63.4143 19.1376 76.9781 35.0839 78.9562ZM81.1496 11.7357V12.7357H82.1496C83.7488 12.7357 85.0614 14.0483 85.0614 15.6475V31.2951C85.0614 32.8943 83.7488 34.207 82.1496 34.207H62.5901C60.9909 34.207 59.6783 32.8943 59.6783 31.2951V15.6475C59.6783 14.0483 60.9909 12.7357 62.5901 12.7357H63.5901V11.7357V9.77971C63.5901 7.45119 64.5151 5.21803 66.1617 3.57152C67.8082 1.925 70.0413 1 72.3699 1C74.6984 1 76.9315 1.925 78.578 3.57152C80.2246 5.21803 81.1496 7.45119 81.1496 9.77971V11.7357ZM78.2377 12.7357H79.2377V11.7357V9.77971C79.2377 5.98056 76.169 2.91188 72.3699 2.91188C68.5707 2.91188 65.502 5.98056 65.502 9.77971V11.7357V12.7357H66.502H78.2377Z" fill="url(#paint0_linear_17_41)" fill-opacity="0.65"/>
<path d="M61.2468 68.3333L61.7733 69.9735L62.9365 68.7029C68.1826 62.9727 71.4139 55.3412 71.4139 46.9426C71.4139 45.9444 71.3301 44.9715 71.2257 44.0307H77.1217C77.1937 44.9958 77.2377 45.96 77.2377 46.9426C77.2377 67.9839 60.1602 85.0614 39.1188 85.0614C18.0775 85.0614 1 67.9839 1 46.9426C1 25.9013 18.0775 8.82377 39.1188 8.82377C42.8662 8.82377 46.4438 9.35795 49.8545 10.3635V19.5594C49.8545 23.3102 46.7815 26.3832 43.0307 26.3832H35.207H34.207V27.3832V35.207C34.207 36.8062 32.8943 38.1188 31.2951 38.1188H23.4713H22.4713V39.1188V46.9426V47.9426H23.4713H46.9426C48.5419 47.9426 49.8545 49.2552 49.8545 50.8545V62.5901V63.5901H50.8545H54.7664C57.8346 63.5901 60.3569 65.561 61.2468 68.3333ZM35.0839 78.9562L36.207 79.0956V77.9639V70.4139V69.4139H35.207C31.4562 69.4139 28.3832 66.3409 28.3832 62.5901V58.6783V58.264L28.0903 57.9712L9.35237 39.2332L8.06703 37.9479L7.66947 39.7216C7.14823 42.0472 6.82377 44.4296 6.82377 46.9426C6.82377 63.4143 19.1376 76.9781 35.0839 78.9562ZM81.1496 11.7357V12.7357H82.1496C83.7488 12.7357 85.0614 14.0483 85.0614 15.6475V31.2951C85.0614 32.8943 83.7488 34.207 82.1496 34.207H62.5901C60.9909 34.207 59.6783 32.8943 59.6783 31.2951V15.6475C59.6783 14.0483 60.9909 12.7357 62.5901 12.7357H63.5901V11.7357V9.77971C63.5901 7.45119 64.5151 5.21803 66.1617 3.57152C67.8082 1.925 70.0413 1 72.3699 1C74.6984 1 76.9315 1.925 78.578 3.57152C80.2246 5.21803 81.1496 7.45119 81.1496 9.77971V11.7357ZM78.2377 12.7357H79.2377V11.7357V9.77971C79.2377 5.98056 76.169 2.91188 72.3699 2.91188C68.5707 2.91188 65.502 5.98056 65.502 9.77971V11.7357V12.7357H66.502H78.2377Z" stroke="url(#paint1_linear_17_41)" stroke-width="2"/>
<defs>
<linearGradient id="paint0_linear_17_41" x1="92" y1="2.10882e-06" x2="-8.00001" y2="86" gradientUnits="userSpaceOnUse">
<stop stop-color="#BB39FF"/>
<stop offset="1" stop-color="#659DFF"/>
</linearGradient>
<linearGradient id="paint1_linear_17_41" x1="43.0307" y1="3.46861e-09" x2="43.013" y2="79.4539" gradientUnits="userSpaceOnUse">
<stop stop-color="#CB25FF"/>
<stop offset="1" stop-color="#5EA3FF"/>
</linearGradient>
</defs>
</svg>
